<svg width="80" height="80" viewBox="0 0 80 80" fill="none" xmlns="http://www.w3.org/2000/svg">
<rect width="80" height="80" rx="12" fill="white"/>
<path d="M36.5 58.2C33.8333 58.2 31.45 57.7833 29.35 56.95C27.25 56.0833 25.5833 54.9 24.35 53.4C23.15 51.9 22.55 50.2167 22.55 48.35C22.55 46.5167 22.95 44.8833 23.75 43.45C24.5833 42.0167 25.85 40.7 27.55 39.5C29.2833 38.3 31.4833 37.15 34.15 36.05C35.9167 35.2833 37.3 34.6 38.3 34C39.3 33.4 40 32.8333 40.4 32.3C40.8333 31.7333 41.05 31.1667 41.05 30.6C41.05 29.9 40.8167 29.3333 40.35 28.9C39.8833 28.4667 39.1833 28.25 38.25 28.25C37.2833 28.25 36.5167 28.5 35.95 29C35.4167 29.5 35.15 30.1167 35.15 30.85C35.15 31.2833 35.2333 31.7167 35.4 32.15C35.6 32.5833 35.9667 33.0833 36.5 33.65C37.0667 34.2167 37.85 34.95 38.85 35.85L57.3 52.25L52.2 58.1L31.4 39.55C30.2667 38.55 29.3333 37.5833 28.6 36.65C27.9 35.7167 27.3667 34.7833 27 33.85C26.6667 32.9167 26.5 31.9667 26.5 31C26.5 29.2 26.9833 27.6333 27.95 26.3C28.9167 24.9333 30.2833 23.8833 32.05 23.15C33.8167 22.3833 35.8833 22 38.25 22C40.4167 22 42.3 22.3333 43.9 23C45.5333 23.6667 46.8 24.6333 47.7 25.9C48.6 27.1667 49.05 28.6667 49.05 30.4C49.05 31.9333 48.65 33.3333 47.85 34.6C47.0833 35.8667 45.8833 37.0333 44.25 38.1C42.65 39.1667 40.6 40.2167 38.1 41.25C36.5667 41.8833 35.3333 42.5167 34.4 43.15C33.5 43.7833 32.85 44.4333 32.45 45.1C32.05 45.7333 31.85 46.4667 31.85 47.3C31.85 47.9667 32.0667 48.5833 32.5 49.15C32.9333 49.7167 33.55 50.1667 34.35 50.5C35.15 50.8 36.1 50.95 37.2 50.95C39.1333 50.95 40.9167 50.4833 42.55 49.55C44.1833 48.5833 45.5833 47.1833 46.75 45.35C47.95 43.5167 48.7667 41.3 49.2 38.7L56.85 41C56.1167 44.4333 54.7833 47.4333 52.85 50C50.95 52.5667 48.6 54.5833 45.8 56.05C43.0333 57.4833 39.9333 58.2 36.5 58.2Z" fill="black"/>
</svg>
