<svg width="340" height="80" viewBox="0 0 340 80" fill="none" xmlns="http://www.w3.org/2000/svg">
<path d="M18.4017 55.06C16.1084 55.06 13.8951 54.78 11.7617 54.22C9.65505 53.6333 7.93505 52.8867 6.60172 51.98L9.20172 46.14C10.4551 46.94 11.8951 47.6067 13.5217 48.14C15.1751 48.6467 16.8151 48.9 18.4417 48.9C19.5351 48.9 20.4151 48.8067 21.0817 48.62C21.7484 48.4067 22.2284 48.14 22.5217 47.82C22.8417 47.4733 23.0017 47.0733 23.0017 46.62C23.0017 45.98 22.7084 45.4733 22.1217 45.1C21.5351 44.7267 20.7751 44.42 19.8417 44.18C18.9084 43.94 17.8684 43.7 16.7217 43.46C15.6017 43.22 14.4684 42.9133 13.3217 42.54C12.2017 42.1667 11.1751 41.6867 10.2417 41.1C9.30839 40.4867 8.54839 39.7 7.96172 38.74C7.37505 37.7533 7.08172 36.5133 7.08172 35.02C7.08172 33.34 7.53505 31.82 8.44172 30.46C9.37505 29.1 10.7617 28.0067 12.6017 27.18C14.4417 26.3533 16.7351 25.94 19.4817 25.94C21.3217 25.94 23.1217 26.1533 24.8817 26.58C26.6684 26.98 28.2551 27.58 29.6417 28.38L27.2017 34.26C25.8684 33.54 24.5484 33.0067 23.2417 32.66C21.9351 32.2867 20.6684 32.1 19.4417 32.1C18.3484 32.1 17.4684 32.22 16.8017 32.46C16.1351 32.6733 15.6551 32.9667 15.3617 33.34C15.0684 33.7133 14.9217 34.14 14.9217 34.62C14.9217 35.2333 15.2017 35.7267 15.7617 36.1C16.3484 36.4467 17.1084 36.74 18.0417 36.98C19.0017 37.1933 20.0417 37.42 21.1617 37.66C22.3084 37.9 23.4417 38.2067 24.5617 38.58C25.7084 38.9267 26.7484 39.4067 27.6817 40.02C28.6151 40.6067 29.3617 41.3933 29.9217 42.38C30.5084 43.34 30.8017 44.5533 30.8017 46.02C30.8017 47.6467 30.3351 49.1533 29.4017 50.54C28.4951 51.9 27.1217 52.9933 25.2817 53.82C23.4684 54.6467 21.1751 55.06 18.4017 55.06ZM48.2202 32.46C49.9002 32.46 51.4202 32.8067 52.7802 33.5C54.1402 34.1667 55.2068 35.2067 55.9802 36.62C56.7802 38.0333 57.1802 39.86 57.1802 42.1V54.5H49.5802V43.34C49.5802 41.7933 49.2602 40.6733 48.6202 39.98C48.0068 39.26 47.1402 38.9 46.0202 38.9C45.2202 38.9 44.4868 39.0867 43.8202 39.46C43.1535 39.8067 42.6335 40.3533 42.2602 41.1C41.8868 41.8467 41.7002 42.82 41.7002 44.02V54.5H34.1002V24.82H41.7002V38.98L39.9402 37.18C40.7668 35.6067 41.9002 34.4333 43.3402 33.66C44.7802 32.86 46.4068 32.46 48.2202 32.46ZM73.1052 54.86C70.7318 54.86 68.6252 54.38 66.7852 53.42C64.9452 52.46 63.4918 51.14 62.4252 49.46C61.3852 47.7533 60.8652 45.8067 60.8652 43.62C60.8652 41.4333 61.3852 39.5 62.4252 37.82C63.4918 36.14 64.9452 34.8333 66.7852 33.9C68.6252 32.94 70.7318 32.46 73.1052 32.46C75.4785 32.46 77.5852 32.94 79.4252 33.9C81.2918 34.8333 82.7452 36.14 83.7852 37.82C84.8252 39.5 85.3452 41.4333 85.3452 43.62C85.3452 45.8067 84.8252 47.7533 83.7852 49.46C82.7452 51.14 81.2918 52.46 79.4252 53.42C77.5852 54.38 75.4785 54.86 73.1052 54.86ZM73.1052 48.82C73.9852 48.82 74.7585 48.62 75.4252 48.22C76.1185 47.82 76.6652 47.2333 77.0652 46.46C77.4652 45.66 77.6652 44.7133 77.6652 43.62C77.6652 42.5267 77.4652 41.6067 77.0652 40.86C76.6652 40.0867 76.1185 39.5 75.4252 39.1C74.7585 38.7 73.9852 38.5 73.1052 38.5C72.2518 38.5 71.4785 38.7 70.7852 39.1C70.1185 39.5 69.5718 40.0867 69.1452 40.86C68.7452 41.6067 68.5452 42.5267 68.5452 43.62C68.5452 44.7133 68.7452 45.66 69.1452 46.46C69.5718 47.2333 70.1185 47.82 70.7852 48.22C71.4785 48.62 72.2518 48.82 73.1052 48.82ZM102.506 54.86C100.666 54.86 99.0924 54.46 97.7858 53.66C96.4791 52.8333 95.4791 51.6067 94.7858 49.98C94.1191 48.3267 93.7858 46.22 93.7858 43.66C93.7858 41.0733 94.1058 38.9667 94.7458 37.34C95.3858 35.6867 96.3458 34.46 97.6258 33.66C98.9324 32.86 100.559 32.46 102.506 32.46C104.479 32.46 106.266 32.9267 107.866 33.86C109.492 34.7667 110.772 36.06 111.706 37.74C112.666 39.3933 113.146 41.3667 113.146 43.66C113.146 45.9533 112.666 47.94 111.706 49.62C110.772 51.3 109.492 52.5933 107.866 53.5C106.266 54.4067 104.479 54.86 102.506 54.86ZM88.8658 62.26V32.82H96.1058V36.5L96.0658 43.66L96.4658 50.86V62.26H88.8658ZM100.906 48.82C101.759 48.82 102.519 48.62 103.186 48.22C103.879 47.82 104.426 47.2333 104.826 46.46C105.252 45.6867 105.466 44.7533 105.466 43.66C105.466 42.5667 105.252 41.6333 104.826 40.86C104.426 40.0867 103.879 39.5 103.186 39.1C102.519 38.7 101.759 38.5 100.906 38.5C100.052 38.5 99.2791 38.7 98.5858 39.1C97.9191 39.5 97.3724 40.0867 96.9458 40.86C96.5458 41.6333 96.3458 42.5667 96.3458 43.66C96.3458 44.7533 96.5458 45.6867 96.9458 46.46C97.3724 47.2333 97.9191 47.82 98.5858 48.22C99.2791 48.62 100.052 48.82 100.906 48.82Z" fill="white"/>
<rect x="130" width="80" height="80" rx="12" fill="white"/>
<path d="M166.5 58.2C163.833 58.2 161.45 57.7833 159.35 56.95C157.25 56.0833 155.583 54.9 154.35 53.4C153.15 51.9 152.55 50.2167 152.55 48.35C152.55 46.5167 152.95 44.8833 153.75 43.45C154.583 42.0167 155.85 40.7 157.55 39.5C159.283 38.3 161.483 37.15 164.15 36.05C165.917 35.2833 167.3 34.6 168.3 34C169.3 33.4 170 32.8333 170.4 32.3C170.833 31.7333 171.05 31.1667 171.05 30.6C171.05 29.9 170.817 29.3333 170.35 28.9C169.883 28.4667 169.183 28.25 168.25 28.25C167.283 28.25 166.517 28.5 165.95 29C165.417 29.5 165.15 30.1167 165.15 30.85C165.15 31.2833 165.233 31.7167 165.4 32.15C165.6 32.5833 165.967 33.0833 166.5 33.65C167.067 34.2167 167.85 34.95 168.85 35.85L187.3 52.25L182.2 58.1L161.4 39.55C160.267 38.55 159.333 37.5833 158.6 36.65C157.9 35.7167 157.367 34.7833 157 33.85C156.667 32.9167 156.5 31.9667 156.5 31C156.5 29.2 156.983 27.6333 157.95 26.3C158.917 24.9333 160.283 23.8833 162.05 23.15C163.817 22.3833 165.883 22 168.25 22C170.417 22 172.3 22.3333 173.9 23C175.533 23.6667 176.8 24.6333 177.7 25.9C178.6 27.1667 179.05 28.6667 179.05 30.4C179.05 31.9333 178.65 33.3333 177.85 34.6C177.083 35.8667 175.883 37.0333 174.25 38.1C172.65 39.1667 170.6 40.2167 168.1 41.25C166.567 41.8833 165.333 42.5167 164.4 43.15C163.5 43.7833 162.85 44.4333 162.45 45.1C162.05 45.7333 161.85 46.4667 161.85 47.3C161.85 47.9667 162.067 48.5833 162.5 49.15C162.933 49.7167 163.55 50.1667 164.35 50.5C165.15 50.8 166.1 50.95 167.2 50.95C169.133 50.95 170.917 50.4833 172.55 49.55C174.183 48.5833 175.583 47.1833 176.75 45.35C177.95 43.5167 178.767 41.3 179.2 38.7L186.85 41C186.117 44.4333 184.783 47.4333 182.85 50C180.95 52.5667 178.6 54.5833 175.8 56.05C173.033 57.4833 169.933 58.2 166.5 58.2Z" fill="black"/>
<path d="M254.32 55.06C252.026 55.06 249.813 54.78 247.68 54.22C245.573 53.6333 243.853 52.8867 242.52 51.98L245.12 46.14C246.373 46.94 247.813 47.6067 249.44 48.14C251.093 48.6467 252.733 48.9 254.36 48.9C255.453 48.9 256.333 48.8067 257 48.62C257.666 48.4067 258.146 48.14 258.44 47.82C258.76 47.4733 258.92 47.0733 258.92 46.62C258.92 45.98 258.626 45.4733 258.04 45.1C257.453 44.7267 256.693 44.42 255.76 44.18C254.826 43.94 253.786 43.7 252.64 43.46C251.52 43.22 250.386 42.9133 249.24 42.54C248.12 42.1667 247.093 41.6867 246.16 41.1C245.226 40.4867 244.466 39.7 243.88 38.74C243.293 37.7533 243 36.5133 243 35.02C243 33.34 243.453 31.82 244.36 30.46C245.293 29.1 246.68 28.0067 248.52 27.18C250.36 26.3533 252.653 25.94 255.4 25.94C257.24 25.94 259.04 26.1533 260.8 26.58C262.586 26.98 264.173 27.58 265.56 28.38L263.12 34.26C261.786 33.54 260.466 33.0067 259.16 32.66C257.853 32.2867 256.586 32.1 255.36 32.1C254.266 32.1 253.386 32.22 252.72 32.46C252.053 32.6733 251.573 32.9667 251.28 33.34C250.986 33.7133 250.84 34.14 250.84 34.62C250.84 35.2333 251.12 35.7267 251.68 36.1C252.266 36.4467 253.026 36.74 253.96 36.98C254.92 37.1933 255.96 37.42 257.08 37.66C258.226 37.9 259.36 38.2067 260.48 38.58C261.626 38.9267 262.666 39.4067 263.6 40.02C264.533 40.6067 265.28 41.3933 265.84 42.38C266.426 43.34 266.72 44.5533 266.72 46.02C266.72 47.6467 266.253 49.1533 265.32 50.54C264.413 51.9 263.04 52.9933 261.2 53.82C259.386 54.6467 257.093 55.06 254.32 55.06ZM281.378 54.86C278.818 54.86 276.578 54.38 274.658 53.42C272.765 52.4333 271.285 51.1 270.218 49.42C269.178 47.7133 268.658 45.78 268.658 43.62C268.658 41.46 269.165 39.54 270.178 37.86C271.218 36.1533 272.645 34.8333 274.458 33.9C276.271 32.94 278.311 32.46 280.578 32.46C282.711 32.46 284.658 32.9 286.418 33.78C288.178 34.6333 289.578 35.9 290.618 37.58C291.658 39.26 292.178 41.3 292.178 43.7C292.178 43.9667 292.165 44.2733 292.138 44.62C292.111 44.9667 292.085 45.2867 292.058 45.58H274.898V41.58H288.018L285.138 42.7C285.165 41.7133 284.978 40.86 284.578 40.14C284.205 39.42 283.671 38.86 282.978 38.46C282.311 38.06 281.525 37.86 280.618 37.86C279.711 37.86 278.911 38.06 278.218 38.46C277.551 38.86 277.031 39.4333 276.658 40.18C276.285 40.9 276.098 41.7533 276.098 42.74V43.9C276.098 44.9667 276.311 45.8867 276.738 46.66C277.191 47.4333 277.831 48.0333 278.658 48.46C279.485 48.86 280.471 49.06 281.618 49.06C282.685 49.06 283.591 48.9133 284.338 48.62C285.111 48.3 285.871 47.82 286.618 47.18L290.618 51.34C289.578 52.4867 288.298 53.3667 286.778 53.98C285.258 54.5667 283.458 54.86 281.378 54.86ZM295.682 54.5V24.82H303.282V54.5H295.682ZM308.221 54.5V24.82H315.821V54.5H308.221Z" fill="white"/>
</svg>
